# xmcd CD database file
#
# Track frame offsets:
#	150
#	18891
#	38756
#	57437
#	77559
#	99736
#	123975
#	130377
#	149417
#	166977
#
# Disc length: 2554 seconds
#
# Revision: 0
# Processed by: cddbd v1.5.1PL0 Copyright (c) Steve Scherf et al.
# Submitted via: CDex 1.51
#
DISCID=8209f80a
DTITLE=大野まりな - またせて、ごめんネ。
DYEAR=2005
DGENRE=Game
TTITLE0=Everlasting Dreamer
TTITLE1=連れてってパラダイス
TTITLE2=9時の観覧車
TTITLE3=Vapor Trail (飛行機雲)
TTITLE4=Marinaの夏
TTITLE5=LOOK
TTITLE6=1999年夏のまりなちゃん (おしゃべり)
TTITLE7=瞳のハートはお熱なの！
TTITLE8=天下無敵☆まりなロード！？
TTITLE9=2005年夏のまりなさん (おしゃべり)
EXTD=YEAR: 2005/08/26
EXTT0=
EXTT1=
EXTT2=
EXTT3=
EXTT4=
EXTT5=
EXTT6=
EXTT7=
EXTT8=
EXTT9=
PLAYORDER=
